<?xml version="1.0" encoding="utf-8"?>
<!-- Generator: Adobe Illustrator 21.1.0, SVG Export Plug-In . SVG Version: 6.00 Build 0)  -->
<svg version="1.1" id="Layer_1" xmlns="http://www.w3.org/2000/svg" xmlns:xlink="http://www.w3.org/1999/xlink" x="0px" y="0px"
	 width="100px" height="100px" viewBox="0 0 100 100" style="enable-background:new 0 0 100 100;" xml:space="preserve">
<style type="text/css">
	.st0{fill:#46464F;}
	.st1{fill:#CC6699;}
	.st2{fill:#FFFFFF;}
</style>
<g>
	<path class="st0" d="M64.6,70.1c-3.2,3.3-4,7.5-2.3,8.5c1.6,0.9,5.4-0.2,8.1-3.1c0.9-1,1.6-2,2.2-3.2c0.1-0.2,0.2-0.5,0.3-0.7
		c0.1-0.2,0.2-0.5,0.3-0.7c0.7-2.1,0.8-4.5,0.1-7c-0.1,0.1-0.3,0.2-0.4,0.2l0,0C72.9,64.2,68,66.5,64.6,70.1z"/>
	<path class="st0" d="M80.3,44.8c-3.1-1-5-3.1-5.4-4.3c-0.2-0.5-0.5-1.2,0-1.5c0.3-0.2,0.4-0.1,1.2,0.7c0.7,0.8,3.8,3,9.5,2.4
		c5.1-0.6,9.4-2.3,12.9-4.5c-1.7-6.6-4.7-12.8-8.9-18.2c-3.3,0.7-7,2-10.9,3.9c-17.6,8.8-18.6,16-18.7,18.8
		c-0.4,7.6,9.3,11.5,14.6,17.2c0.1,0.1,0.2,0.3,0.4,0.4c1.6-0.6,3.8-0.9,7.3-1c8.5-0.1,13.3,5.5,13.2,10.5c-0.2,4-3.8,5.6-4.5,5.7
		c-0.5,0.1-0.8,0.1-0.8-0.3c0-0.3,0.1-0.4,0.7-0.7c0.6-0.4,2.3-1.5,2.6-3.7c0.3-2.1-1.3-7.3-9.5-8.2c-2.9-0.3-5.2-0.1-7.2,0.4
		c1.4,3.1,1.7,9.4-1.6,14.3c-3.4,5.1-9.7,8.1-15.9,6.4c-2-0.6-5-4.7-2.4-10.4c2.5-5.4,12.9-10.7,14.4-11.4v0
		c-4.9-4.2-16.7-9.8-18.3-18.4c-0.5-2.4,0.7-8.3,7.9-15c6-5.7,14.4-10,22.2-12.7c0.7-0.3,1.4-0.5,2.2-0.7C80.4,9.7,74.8,6,68.5,3.5
		c-4.6-1.8-9.5-3-14.6-3.4C52.9,0,48.5,0,47.8,0c-0.2,0-0.9,0.1-1.6,0.1c-8.7,0.6-17.5,3.7-24.8,8.8C13.1,14.7,6.8,22.8,3.2,32.2
		c-1.7,4.4-2.7,9.1-3.1,14.1c-0.1,1.5-0.1,6,0,7.5c0.7,8.3,3.1,15.8,7.5,22.8c3.3,5.3,7.9,10.2,13,13.9c7.6,5.5,16.2,8.7,25.6,9.4
		c1.5,0.1,6,0.1,7.5,0c12.2-1,23.1-6,31.6-14.5c4.8-4.8,8.6-10.5,11.1-16.8c1.9-4.6,3-9.6,3.4-14.8c0.1-1.5,0.1-6,0-7.5
		c-0.1-1.3-0.3-2.6-0.5-3.9c-0.5,0.2-1,0.5-1.6,0.7C89.7,46.2,83,45.7,80.3,44.8z"/>
	<path class="st1" d="M60.8,27.9c-7.2,6.7-8.3,12.6-7.9,15c1.7,8.6,13.5,14.3,18.3,18.4v0c-1.4,0.7-11.9,6-14.4,11.4
		c-2.6,5.7,0.4,9.8,2.4,10.4c6.2,1.7,12.5-1.4,15.9-6.4c3.3-4.9,3-11.2,1.6-14.3c2-0.5,4.3-0.8,7.2-0.4c8.2,1,9.8,6.1,9.5,8.2
		c-0.3,2.1-2,3.3-2.6,3.7c-0.6,0.4-0.8,0.5-0.7,0.7c0.1,0.4,0.3,0.4,0.8,0.3c0.7-0.1,4.3-1.7,4.5-5.7c0.2-5-4.6-10.7-13.2-10.5
		c-3.5,0.1-5.7,0.4-7.3,1c-0.1-0.1-0.2-0.3-0.4-0.4c-5.3-5.6-15-9.6-14.6-17.2c0.2-2.8,1.1-10,18.7-18.8c3.9-1.9,7.5-3.2,10.9-3.9
		c-1.3-1.7-2.7-3.3-4.2-4.8c-0.1-0.1-0.1-0.1-0.2-0.2c-0.7,0.2-1.4,0.4-2.2,0.7C75.3,17.9,66.8,22.2,60.8,27.9z M73.3,63.9
		c0.7,2.5,0.6,4.9-0.1,7c-0.1,0.2-0.2,0.5-0.3,0.7c-0.1,0.2-0.2,0.5-0.3,0.7c-0.5,1.1-1.3,2.2-2.2,3.2c-2.7,3-6.5,4.1-8.1,3.1
		c-1.8-1-0.9-5.2,2.3-8.5c3.4-3.6,8.3-5.9,8.3-5.9l0,0C73,64.1,73.2,64,73.3,63.9z"/>
	<path class="st1" d="M85.5,42.2c-5.7,0.6-8.7-1.6-9.5-2.4c-0.8-0.9-0.9-0.9-1.2-0.7c-0.5,0.3-0.2,1,0,1.5c0.4,1.2,2.3,3.2,5.4,4.3
		c2.8,0.9,9.5,1.4,17.6-1.7c0.5-0.2,1-0.4,1.6-0.7c-0.2-1.6-0.6-3.2-1-4.7C95,39.9,90.6,41.6,85.5,42.2z"/>
</g>
<g>
	<path class="st2" d="M14.9,22h3.4l3.5,8.4l3.8-8.4H29l-8.4,18.2h-3.5l2.7-5.9L14.9,22z"/>
	<path class="st2" d="M37.2,21.7c1.3,0,2.4,0.3,3.6,0.9s2,1.5,2.6,2.6c0.6,1.1,0.9,2.2,0.9,3.5c0,1.3-0.3,2.4-0.9,3.5
		s-1.5,2-2.6,2.6c-1.1,0.6-2.3,0.9-3.6,0.9c-1.9,0-3.5-0.7-4.9-2c-1.4-1.4-2-3-2-5c0-2.1,0.8-3.8,2.3-5.2
		C33.9,22.3,35.4,21.7,37.2,21.7z M37.2,24.9c-1,0-1.9,0.4-2.6,1.1c-0.7,0.7-1,1.7-1,2.8c0,1.2,0.3,2.1,1,2.8
		c0.7,0.7,1.5,1.1,2.6,1.1c1,0,1.9-0.4,2.6-1.1c0.7-0.7,1-1.7,1-2.8c0-1.1-0.3-2.1-1-2.8S38.3,24.9,37.2,24.9z"/>
	<path class="st2" d="M47,22h3.4v6.4c0,1.3,0.1,2.1,0.3,2.6c0.2,0.5,0.4,0.9,0.8,1.1c0.4,0.3,0.9,0.4,1.4,0.4c0.6,0,1-0.1,1.4-0.4
		c0.4-0.3,0.7-0.7,0.9-1.2c0.1-0.4,0.2-1.2,0.2-2.5V22h3.3v5.7c0,2.3-0.2,3.9-0.6,4.8c-0.4,1-1.1,1.9-2,2.4c-0.9,0.6-2,0.8-3.3,0.8
		c-1.5,0-2.6-0.3-3.6-1s-1.5-1.6-1.9-2.7c-0.3-0.8-0.4-2.3-0.4-4.4V22z"/>
</g>
<g>
	<path class="st2" d="M28.1,43.4h3.3v13.3h-3.3v-1.4c-0.7,0.6-1.3,1.1-2,1.3c-0.7,0.3-1.4,0.4-2.1,0.4c-1.7,0-3.2-0.7-4.5-2
		c-1.3-1.3-1.9-3-1.9-5c0-2.1,0.6-3.8,1.8-5.1c1.2-1.3,2.7-2,4.4-2c0.8,0,1.6,0.2,2.3,0.5c0.7,0.3,1.4,0.8,1.9,1.4V43.4z M24.6,46.2
		c-1,0-1.9,0.4-2.6,1.1c-0.7,0.7-1,1.7-1,2.8c0,1.2,0.3,2.1,1,2.8c0.7,0.7,1.6,1.1,2.6,1.1c1.1,0,1.9-0.4,2.6-1.1
		c0.7-0.7,1-1.7,1-2.9c0-1.2-0.3-2.1-1-2.8C26.5,46.5,25.6,46.2,24.6,46.2z"/>
	<path class="st2" d="M34,43.4h2.9v1.7c0.3-0.7,0.7-1.2,1.2-1.5c0.5-0.3,1.1-0.5,1.7-0.5c0.4,0,0.9,0.1,1.4,0.3l-1,2.9
		c-0.4-0.2-0.7-0.3-1-0.3c-0.5,0-1,0.3-1.3,1s-0.5,1.9-0.5,3.8l0,0.7v5.4H34V43.4z"/>
	<path class="st2" d="M56.2,51.1H45.5c0.2,0.9,0.6,1.7,1.2,2.3c0.7,0.6,1.5,0.8,2.6,0.8c1.3,0,2.3-0.4,3.2-1.3l2.8,1.3
		c-0.7,1-1.5,1.7-2.5,2.2s-2.1,0.7-3.5,0.7c-2.1,0-3.8-0.7-5.1-2c-1.3-1.3-2-3-2-5c0-2,0.7-3.7,2-5.1c1.3-1.3,3-2,4.9-2
		c2.1,0,3.8,0.7,5.1,2c1.3,1.3,2,3.1,2,5.3L56.2,51.1z M52.9,48.4c-0.2-0.7-0.7-1.3-1.3-1.8s-1.4-0.7-2.3-0.7
		c-0.9,0-1.8,0.3-2.5,0.8c-0.4,0.3-0.9,0.9-1.2,1.7H52.9z"/>
</g>
<g>
	<path class="st2" d="M17.6,59.8h3.3v6.5c0.7-0.6,1.3-1,2-1.3c0.7-0.3,1.3-0.4,2-0.4c1.3,0,2.4,0.5,3.3,1.4c0.8,0.8,1.2,2,1.2,3.5
		v8.8h-3.3v-5.9c0-1.5-0.1-2.6-0.2-3.1c-0.1-0.5-0.4-1-0.8-1.2c-0.4-0.3-0.8-0.4-1.3-0.4c-0.7,0-1.3,0.2-1.7,0.7
		c-0.5,0.4-0.8,1.1-1,1.8c-0.1,0.4-0.1,1.3-0.1,2.7v5.4h-3.3V59.8z"/>
	<path class="st2" d="M46,72.6H35.3c0.2,0.9,0.6,1.7,1.2,2.3c0.7,0.6,1.5,0.8,2.6,0.8c1.3,0,2.3-0.4,3.2-1.3l2.8,1.3
		c-0.7,1-1.5,1.7-2.5,2.2c-1,0.5-2.1,0.7-3.5,0.7c-2.1,0-3.8-0.7-5.1-2c-1.3-1.3-2-3-2-5c0-2,0.7-3.7,2-5.1c1.3-1.3,3-2,4.9-2
		c2.1,0,3.8,0.7,5.1,2s2,3.1,2,5.3L46,72.6z M42.7,70c-0.2-0.7-0.7-1.3-1.3-1.8c-0.7-0.5-1.4-0.7-2.3-0.7c-0.9,0-1.8,0.3-2.5,0.8
		c-0.4,0.3-0.9,0.9-1.2,1.7H42.7z"/>
	<path class="st2" d="M48,64.9h2.9v1.7c0.3-0.7,0.7-1.2,1.2-1.5s1.1-0.5,1.7-0.5c0.4,0,0.9,0.1,1.4,0.3l-1,2.9
		c-0.4-0.2-0.7-0.3-1-0.3c-0.5,0-1,0.3-1.3,1c-0.4,0.6-0.5,1.9-0.5,3.8l0,0.7v5.4H48V64.9z"/>
	<path class="st2" d="M70.2,72.6H59.4c0.2,0.9,0.6,1.7,1.2,2.3s1.5,0.8,2.6,0.8c1.3,0,2.3-0.4,3.2-1.3l2.8,1.3
		c-0.7,1-1.5,1.7-2.5,2.2c-1,0.5-2.1,0.7-3.5,0.7c-2.1,0-3.8-0.7-5.1-2c-1.3-1.3-2-3-2-5c0-2,0.7-3.7,2-5.1s3-2,4.9-2
		c2.1,0,3.8,0.7,5.1,2s2,3.1,2,5.3L70.2,72.6z M66.8,70c-0.2-0.7-0.7-1.3-1.3-1.8c-0.7-0.5-1.4-0.7-2.3-0.7c-0.9,0-1.8,0.3-2.5,0.8
		c-0.4,0.3-0.9,0.9-1.2,1.7H66.8z"/>
</g>
</svg>
